<?xml version="1.0" encoding="utf-8"?>
<!-- Generator: Adobe Illustrator 26.0.1, SVG Export Plug-In . SVG Version: 6.00 Build 0)  -->
<svg version="1.1" id="Capa_1" xmlns="http://www.w3.org/2000/svg" xmlns:xlink="http://www.w3.org/1999/xlink" x="0px" y="0px"
	 viewBox="0 0 16 16" style="enable-background:new 0 0 16 16;" xml:space="preserve">
<style type="text/css">
	.st0{fill:none;stroke:#020001;stroke-width:18.3593;stroke-miterlimit:10;}
	.st1{fill:none;stroke:#020001;stroke-width:27.539;stroke-miterlimit:10;}
	.st2{fill:none;stroke:#020001;stroke-width:27.8827;stroke-miterlimit:10;}
	.st3{fill:#020001;}
	.st4{font-family:'RumbleBraveRough';}
	.st5{font-size:13.1197px;}
	.st6{fill:none;stroke:#020001;stroke-width:0.4786;stroke-miterlimit:10;}
	.st7{fill:none;stroke:#020001;stroke-width:0.7179;stroke-miterlimit:10;}
	.st8{fill:none;stroke:#020001;stroke-width:0.7268;stroke-miterlimit:10;}
</style>
<g>
	<text transform="matrix(1.2815 0 0 1 3637.1357 124.6981)" class="st3 st4" style="font-size:503.2992px;">M</text>
</g>
<g>
	<path class="st0" d="M3818.34-237.75c18.81-47.64,65.26-81.34,119.58-81.34c70.98,0,128.52,57.54,128.52,128.52
		c0,36.1-11.82,68.72-35.79,92.06"/>
	<line class="st1" x1="3931.19" y1="-322.76" x2="3931.19" y2="-373.08"/>
	<line class="st1" x1="3866.81" y1="-300.31" x2="3836.46" y2="-340.45"/>
	<line class="st1" x1="3832.6" y1="-247.98" x2="3784.99" y2="-264.26"/>
	<line class="st1" x1="4003.45" y1="-306.63" x2="4024.17" y2="-352.49"/>
	<line class="st1" x1="4054.7" y1="-255.97" x2="4101.43" y2="-274.63"/>
	<line class="st1" x1="4068.3" y1="-175.62" x2="4118.44" y2="-171.39"/>
	<line class="st2" x1="4030.54" y1="-114.29" x2="4069.5" y2="-80.47"/>
</g>
<g>
	<text transform="matrix(1.2815 0 0 1 2.2241 13.5747)" class="st3 st4 st5">M</text>
</g>
<g>
	<path class="st6" d="M6.95,4.13c0.49-1.24,1.7-2.12,3.12-2.12c1.85,0,3.35,1.5,3.35,3.35c0,0.94-0.31,1.79-0.93,2.4"/>
	<line class="st7" x1="9.89" y1="1.91" x2="9.89" y2="0.6"/>
	<line class="st7" x1="8.21" y1="2.5" x2="7.42" y2="1.45"/>
	<line class="st7" x1="7.32" y1="3.86" x2="6.08" y2="3.44"/>
	<line class="st7" x1="11.77" y1="2.33" x2="12.31" y2="1.14"/>
	<line class="st7" x1="13.11" y1="3.65" x2="14.33" y2="3.17"/>
	<line class="st7" x1="13.46" y1="5.75" x2="14.77" y2="5.86"/>
	<line class="st8" x1="12.48" y1="7.35" x2="13.49" y2="8.23"/>
</g>
</svg>
